<svg id="Layer_1" data-name="Layer 1" xmlns="http://www.w3.org/2000/svg" viewBox="0 0 482.84 393.27"><defs><style>.cls-1{fill:#8dc63f;}.cls-2{fill:#39b54a;}</style></defs><title>innate logo</title><path class="cls-1" d="M92.7,129.61l28.91,5.18a171,171,0,0,1,269.9,22h29.64c-33.27-61.52-98.38-103.4-173.09-103.4A196.41,196.41,0,0,0,92.7,129.61Z" transform="translate(-8.58 -53.37)"/><path class="cls-1" d="M377.11,362.28a171,171,0,0,1-274.3-21.88l-29.28.11c32.81,63,98.72,106.12,174.53,106.12a196.45,196.45,0,0,0,156.15-77.26Z" transform="translate(-8.58 -53.37)"/><path class="cls-1" d="M391.86,261.89a6.78,6.78,0,0,1-4.65-2.47c-1.28-1.77-1.92-4.57-1.92-8.42V218.76h6a48.33,48.33,0,0,1,11.93-20v-1.69h-18V171.45H361.55l-6.89,25.66H341.51v21.65h11.86V261.1q0,12.34,7.62,17.48t21.73,5.13a83.64,83.64,0,0,0,10.59-.8,56,56,0,0,0,9.94-2.08v-.75A47.09,47.09,0,0,1,391.86,261.89Z" transform="translate(-8.58 -53.37)"/><path class="cls-1" d="M235.34,203.37q-7.36-8.19-22.13-8.18a38,38,0,0,0-17.08,4,35.48,35.48,0,0,0-13.07,10.74L181,197.11H154.84v4.25c4.7,6.48,7.09,15.07,7.09,25.58v54.85h24.82V232.07a13.16,13.16,0,0,1,3.69-9.46,12.75,12.75,0,0,1,9.62-3.85,9.88,9.88,0,0,1,7.94,3.29,13,13,0,0,1,2.81,8.74v51h31.91V226.94Q242.72,211.55,235.34,203.37Z" transform="translate(-8.58 -53.37)"/><path class="cls-1" d="M54.17,195.34c-8.55-3.54-21.69-.82-27.55,5.72l-2,2.2v78.53H56.55V196.33Z" transform="translate(-8.58 -53.37)"/><path class="cls-1" d="M147.8,203.37q7.38,8.17,7.38,23.57v54.85H123.26v-51a13,13,0,0,0-2.8-8.74,9.88,9.88,0,0,0-7.94-3.29,12.74,12.74,0,0,0-9.62,3.85,13.16,13.16,0,0,0-3.69,9.46v49.72H67.3V197.11H93.44l2.08,12.83a35.4,35.4,0,0,1,13.07-10.74,38,38,0,0,1,17.08-4Q140.43,195.19,147.8,203.37Z" transform="translate(-8.58 -53.37)"/><path class="cls-1" d="M325.63,201.68q12.19,6.49,12.19,21.09v33a7.48,7.48,0,0,0,1.28,4.49,4.45,4.45,0,0,0,3.85,1.76h5.78V280.5a15.06,15.06,0,0,1-2.49,1.05,41.42,41.42,0,0,1-5.69,1.44,44.79,44.79,0,0,1-8.5.72q-9.32,0-15.32-2.8t-8.26-7.78a51.78,51.78,0,0,1-13.63,7.7,49.31,49.31,0,0,1-17.64,2.88q-29.83,0-29.83-23.73,0-12.35,6.66-18.85t19.16-8.9q12.51-2.4,32.72-2.4v-4.17a8.81,8.81,0,0,0-3.45-7.54,14.54,14.54,0,0,0-8.9-2.57,19.26,19.26,0,0,0-8.58,1.77,5.87,5.87,0,0,0-3.61,5.61v.64H249.94a11.77,11.77,0,0,1-.16-2.24q0-12,11.46-19.09t32.8-7.05Q313.44,195.19,325.63,201.68Zm-39.85,46.19q-6.5,3-6.49,7.94,0,8,10.9,8a18.52,18.52,0,0,0,11-3.37q4.72-3.37,4.73-8.34V244.9Q292.27,244.9,285.78,247.87Z" transform="translate(-8.58 -53.37)"/><path class="cls-1" d="M479.15,206.09q12.27,10.91,12.27,33.36v5.45H427.91q0,9.15,4.09,13.79c2.73,3.11,7,4.65,12.91,4.65q8,0,11.79-3.36a11.47,11.47,0,0,0,3.77-9h30.95q0,15.39-11.71,24.05t-34.16,8.66q-23.57,0-36.56-11t-13-33.28q0-21.81,12.67-33t35-11.22Q466.88,195.19,479.15,206.09Zm-51.08,23.74h31.12q0-6.59-3.77-10.43t-10.51-3.85Q429.84,215.55,428.07,229.83Z" transform="translate(-8.58 -53.37)"/><path class="cls-2" d="M20.59,195.65l-12-19.6c19.12-15.12,38.75-14.67,60.84-8L57.27,187.86C45.83,183.12,29,186.27,20.59,195.65Z" transform="translate(-8.58 -53.37)"/><path class="cls-2" d="M39.46,322.61H32.79V301.86H25v-5.19H47.24v5.19H39.46Z" transform="translate(-8.58 -53.37)"/><path class="cls-2" d="M65.77,322.24a128,128,0,0,1-13,.74,5.23,5.23,0,0,1-5.56-5.56v-8.89a5.46,5.46,0,0,1,5.93-5.93h7.41a5.44,5.44,0,0,1,5.93,5.93v6.85H53.73v1.49a1.24,1.24,0,0,0,.37.92,1.22,1.22,0,0,0,.92.37q3.67,0,10.75-.55Zm-10.56-15a1.31,1.31,0,0,0-1.48,1.48v2H60v-2a1.32,1.32,0,0,0-1.49-1.48Z" transform="translate(-8.58 -53.37)"/><path class="cls-2" d="M87.26,322.24A117.59,117.59,0,0,1,75,323a5.21,5.21,0,0,1-5.55-5.56V308.9A5.44,5.44,0,0,1,75.4,303H87.26v5H77.44A1.31,1.31,0,0,0,76,309.45v7.23a1.26,1.26,0,0,0,.37.93,1.3,1.3,0,0,0,.93.37c2.22,0,5.56-.19,10-.56Z" transform="translate(-8.58 -53.37)"/><path class="cls-2" d="M96.71,303.34a32.08,32.08,0,0,1,6.3-.74h1.67a5.23,5.23,0,0,1,5.56,5.56v14.45h-6.49V308.9a1.26,1.26,0,0,0-.37-.93,1.28,1.28,0,0,0-.92-.37h-1.3a20.38,20.38,0,0,0-2.58.15l-1.87.22v14.64H90.23V296.67h6.48Z" transform="translate(-8.58 -53.37)"/><path class="cls-2" d="M124.5,308a15.81,15.81,0,0,0-4.44.74v13.9h-6.49V303h5.75l.37,1.85a13.46,13.46,0,0,1,3.57-1.68,11.4,11.4,0,0,1,3.1-.54H128a5.23,5.23,0,0,1,5.56,5.56v14.45H127.1V309.27a1.26,1.26,0,0,0-1.3-1.3Z" transform="translate(-8.58 -53.37)"/><path class="cls-2" d="M156.93,317.05A5.47,5.47,0,0,1,151,323h-8.52a5.46,5.46,0,0,1-5.93-5.93v-8.52a5.44,5.44,0,0,1,5.93-5.93H151a5.46,5.46,0,0,1,5.93,5.93Zm-6.49-8A1.31,1.31,0,0,0,149,307.6h-4.45a1.31,1.31,0,0,0-1.48,1.48v7.42a1.31,1.31,0,0,0,1.48,1.48H149a1.31,1.31,0,0,0,1.48-1.48Z" transform="translate(-8.58 -53.37)"/><path class="cls-2" d="M170.27,322.61a31.71,31.71,0,0,1-4.73.37,5.12,5.12,0,0,1-3.76-1.52,5.47,5.47,0,0,1-1.52-4V296.67h6.49V316.5a1.26,1.26,0,0,0,1.29,1.29h2.23Z" transform="translate(-8.58 -53.37)"/><path class="cls-2" d="M192.87,317.05a5.46,5.46,0,0,1-5.93,5.93h-8.52a5.47,5.47,0,0,1-5.93-5.93v-8.52a5.46,5.46,0,0,1,5.93-5.93h8.52a5.44,5.44,0,0,1,5.93,5.93Zm-6.48-8a1.32,1.32,0,0,0-1.49-1.48h-4.44a1.31,1.31,0,0,0-1.48,1.48v7.42a1.31,1.31,0,0,0,1.48,1.48h4.44a1.32,1.32,0,0,0,1.49-1.48Z" transform="translate(-8.58 -53.37)"/><path class="cls-2" d="M209,321.13a32.08,32.08,0,0,1-6.3.74h-1.3a5.23,5.23,0,0,1-5.55-5.56V308.9a5.44,5.44,0,0,1,5.93-5.93h13.71v20.75a5.23,5.23,0,0,1-5.56,5.56,128,128,0,0,1-13-.74v-4.82q7.08.55,10.74.56a1.3,1.3,0,0,0,.93-.37A1.26,1.26,0,0,0,209,323Zm-4.45-4.26a26.45,26.45,0,0,0,4.45-.37V308H203.8a1.31,1.31,0,0,0-1.48,1.48v6.12a1.26,1.26,0,0,0,.37.93,1.3,1.3,0,0,0,.93.37Z" transform="translate(-8.58 -53.37)"/><path class="cls-2" d="M224.37,329.28a39.81,39.81,0,0,1-4.82-.37v-4.82h3.34q1.41,0,1.83-.78a2.52,2.52,0,0,0-.16-2.18L217,303h6.85l4.64,12.6,3.89-12.6h6.85l-7.41,20.38a10.68,10.68,0,0,1-2.78,4.43A6.77,6.77,0,0,1,224.37,329.28Z" transform="translate(-8.58 -53.37)"/><path class="cls-2" d="M271.8,322.24q-8.26.74-13.71.74-3.63,0-5.34-1.71t-1.7-5.33V304.08c0-2.59.59-4.48,1.76-5.65s3.06-1.76,5.65-1.76H271.8v5.19H259.94a2,2,0,0,0-2.22,2.22v11.86a1.83,1.83,0,0,0,.5,1.35,1.7,1.7,0,0,0,1.28.5c.52,0,1.09,0,1.7,0l1.93,0,2-.08c.68,0,1.56-.07,2.63-.14s2.41-.16,4-.26Z" transform="translate(-8.58 -53.37)"/><path class="cls-2" d="M292.55,322.24a128,128,0,0,1-13,.74,5.23,5.23,0,0,1-5.56-5.56v-8.89A5.46,5.46,0,0,1,280,302.6h7.41a5.44,5.44,0,0,1,5.93,5.93v6.85H280.51v1.49a1.24,1.24,0,0,0,.37.92,1.26,1.26,0,0,0,.93.37q3.66,0,10.74-.55Zm-10.56-15a1.31,1.31,0,0,0-1.48,1.48v2h6.3v-2a1.31,1.31,0,0,0-1.48-1.48Z" transform="translate(-8.58 -53.37)"/><path class="cls-2" d="M307.56,308a15.93,15.93,0,0,0-4.45.74v13.9h-6.48V303h5.74l.37,1.85a13.52,13.52,0,0,1,3.58-1.68,11.27,11.27,0,0,1,3.09-.54h1.67a5.23,5.23,0,0,1,5.56,5.56v14.45h-6.49V309.27a1.26,1.26,0,0,0-1.29-1.3Z" transform="translate(-8.58 -53.37)"/><path class="cls-2" d="M333.68,322.61a67.67,67.67,0,0,1-7,.37,5.21,5.21,0,0,1-5.55-5.56V308h-2.23v-5h2.23l.74-4.45h5.74V303h4.63v5h-4.63v8.53a1.22,1.22,0,0,0,.37.92,1.26,1.26,0,0,0,.93.37h4.81Z" transform="translate(-8.58 -53.37)"/><path class="cls-2" d="M347.58,308.34a11.78,11.78,0,0,0-4.82,1.11v13.16h-6.48V303H342l.37,2.41a10,10,0,0,1,6.67-2.78h1.67v5.74Z" transform="translate(-8.58 -53.37)"/><path class="cls-2" d="M370.74,322.24a128,128,0,0,1-13,.74,5.23,5.23,0,0,1-5.56-5.56v-8.89a5.46,5.46,0,0,1,5.93-5.93h7.41a5.44,5.44,0,0,1,5.93,5.93v6.85H358.7v1.49a1.24,1.24,0,0,0,.37.92,1.22,1.22,0,0,0,.92.37q3.67,0,10.75-.55Zm-10.56-15a1.31,1.31,0,0,0-1.48,1.48v2H365v-2a1.32,1.32,0,0,0-1.49-1.48Z" transform="translate(-8.58 -53.37)"/></svg>